<svg width="18" height="17" viewBox="0 0 18 17" fill="none" xmlns="http://www.w3.org/2000/svg">
<path d="M16.513 8.58341L9.013 16.0114L1.513 8.58341C1.0183 8.10202 0.628639 7.52342 0.368544 6.88404C0.10845 6.24466 -0.016442 5.55836 0.00173387 4.86834C0.0199097 4.17832 0.180759 3.49954 0.474154 2.87474C0.767548 2.24994 1.18713 1.69266 1.70648 1.23799C2.22583 0.783313 2.8337 0.441096 3.49181 0.232888C4.14991 0.0246802 4.844 -0.0450088 5.53036 0.0282087C6.21673 0.101426 6.8805 0.315964 7.47987 0.658314C8.07925 1.00066 8.60124 1.46341 9.013 2.01741C9.42653 1.46743 9.94913 1.00873 10.5481 0.670012C11.1471 0.331296 11.8095 0.119857 12.4939 0.0489273C13.1784 -0.0220022 13.8701 0.0491053 14.5258 0.257799C15.1815 0.466493 15.787 0.80828 16.3045 1.26177C16.8221 1.71526 17.2404 2.27069 17.5334 2.8933C17.8264 3.51591 17.9877 4.19229 18.0073 4.88012C18.0269 5.56794 17.9043 6.2524 17.6471 6.89066C17.39 7.52891 17.0039 8.10723 16.513 8.58941" fill="#EB4A36"/>
</svg>
